<svg width="358" height="75" viewBox="0 0 358 75" fill="none" xmlns="http://www.w3.org/2000/svg">
<path d="M5.62703 57.0583L39.0506 75V62.1599C39.1232 57.0607 41.3524 45.9353 49.7481 41.4693L70.3726 30.4048C73.8383 28.5444 76 24.9361 76 21.0106V0L42.576 17.9417C39.1104 19.802 36.949 23.4104 36.949 27.3359L37.1801 47.9622C36.2319 46.5809 34.9551 45.4174 33.4236 44.5952L0 26.6535V47.6641C0 51.5896 2.16136 55.198 5.62703 57.0583Z" fill="url(#paint0_linear_1747_13)"/>
<path d="M129.999 62.0119C126.999 56.0786 123.933 49.1453 120.799 41.2119C117.733 33.2119 114.799 24.4786 111.999 15.0119H124.899C125.499 17.5453 126.199 20.2453 126.999 23.1119C127.866 25.9786 128.766 28.8786 129.699 31.8119C130.633 34.6786 131.566 37.4786 132.499 40.2119C133.499 42.9453 134.433 45.4453 135.299 47.7119C136.166 45.4453 137.133 42.9453 138.199 40.2119C139.266 37.4786 140.299 34.6786 141.299 31.8119C142.366 28.8786 143.366 25.9786 144.299 23.1119C145.299 20.2453 146.099 17.5453 146.699 15.0119H159.199C156.399 24.4786 153.299 33.2119 149.899 41.2119C146.499 49.1453 143.299 56.0786 140.299 62.0119H129.999Z" fill="url(#paint1_linear_1747_13)"/>
<path d="M185.699 53.2119C187.033 53.2119 188.333 53.2119 189.599 53.2119C190.866 53.1453 191.966 53.0453 192.899 52.9119V42.1119C192.099 41.9786 191.133 41.8786 189.999 41.8119C188.866 41.6786 187.833 41.6119 186.899 41.6119C185.633 41.6119 184.399 41.7119 183.199 41.9119C181.999 42.0453 180.933 42.3119 179.999 42.7119C179.133 43.1119 178.433 43.6786 177.899 44.4119C177.366 45.1453 177.099 46.1119 177.099 47.3119C177.099 49.4453 177.899 50.9786 179.499 51.9119C181.099 52.7786 183.166 53.2119 185.699 53.2119ZM184.599 13.8119C188.466 13.8119 191.666 14.2786 194.199 15.2119C196.799 16.0786 198.866 17.3453 200.4 19.0119C201.933 20.6119 203.033 22.6119 203.7 25.0119C204.366 27.3453 204.7 29.9786 204.7 32.9119V60.9119C202.9 61.3119 200.233 61.7786 196.7 62.3119C193.166 62.8453 189.199 63.1119 184.799 63.1119C181.799 63.1119 179.066 62.8453 176.599 62.3119C174.199 61.7786 172.133 60.9119 170.399 59.7119C168.666 58.4453 167.333 56.8453 166.399 54.9119C165.466 52.9119 164.999 50.4786 164.999 47.6119C164.999 44.8786 165.533 42.5786 166.599 40.7119C167.666 38.8453 169.099 37.3453 170.899 36.2119C172.699 35.0786 174.766 34.2786 177.099 33.8119C179.433 33.2786 181.866 33.0119 184.399 33.0119C187.599 33.0119 190.433 33.2786 192.899 33.8119V32.3119C192.899 29.9786 192.166 28.0453 190.699 26.5119C189.233 24.9119 186.699 24.1119 183.099 24.1119C180.766 24.1119 178.499 24.2786 176.299 24.6119C174.166 24.9453 172.433 25.3453 171.099 25.8119L169.399 15.9119C170.933 15.3786 173.099 14.9119 175.899 14.5119C178.699 14.0453 181.599 13.8119 184.599 13.8119Z" fill="url(#paint2_linear_1747_13)"/>
<path d="M236 29.7119L245.6 15.0119H258.1L242.9 37.6119C244.5 39.5453 246.066 41.6119 247.6 43.8119C249.133 45.9453 250.6 48.1119 252 50.3119C253.4 52.5119 254.666 54.6119 255.8 56.6119C256.933 58.6119 257.9 60.4119 258.7 62.0119H245.9C244.1 58.6119 242.3 55.5786 240.5 52.9119C238.7 50.2453 237 47.8453 235.4 45.7119C233.4 48.3786 231.6 50.9786 230 53.5119C228.4 56.0453 226.766 58.8786 225.1 62.0119H212.6C213.6 60.1453 214.733 58.2119 216 56.2119C217.333 54.1453 218.7 52.0786 220.1 50.0119C221.566 47.8786 223.066 45.7786 224.6 43.7119C226.2 41.6453 227.733 39.6786 229.2 37.8119L212.7 15.0119H225.6L236 29.7119Z" fill="url(#paint3_linear_1747_13)"/>
<path d="M263.7 38.9119C263.7 34.7786 264.333 31.1453 265.6 28.0119C266.867 24.8786 268.533 22.2786 270.6 20.2119C272.667 18.0786 275.033 16.4786 277.7 15.4119C280.367 14.3453 283.1 13.8119 285.9 13.8119C292.833 13.8119 298.1 15.8786 301.7 20.0119C305.3 24.0786 307.1 30.0453 307.1 37.9119C307.1 38.7119 307.067 39.5453 307 40.4119C307 41.2786 306.967 41.9786 306.9 42.5119H276.4C276.4 45.5786 277.667 48.0119 280.2 49.8119C282.733 51.5453 286 52.4119 290 52.4119C292.467 52.4119 294.8 52.1453 297 51.6119C299.267 51.0786 301.167 50.5453 302.7 50.0119L304.4 60.5119C302.267 61.2453 300 61.8453 297.6 62.3119C295.2 62.8453 292.5 63.1119 289.5 63.1119C285.5 63.1119 281.9 62.6119 278.7 61.6119C275.567 60.5453 272.867 59.0119 270.6 57.0119C268.4 54.9453 266.7 52.4119 265.5 49.4119C264.3 46.4119 263.7 42.9119 263.7 38.9119ZM295.2 34.0119C295.2 32.7453 295.033 31.5453 294.7 30.4119C294.367 29.2119 293.833 28.1453 293.1 27.2119C292.367 26.2786 291.433 25.5453 290.3 25.0119C289.167 24.4119 287.767 24.1119 286.1 24.1119C284.5 24.1119 283.1 24.3786 281.9 24.9119C280.767 25.4453 279.8 26.1786 279 27.1119C278.267 28.0453 277.667 29.1119 277.2 30.3119C276.8 31.5119 276.533 32.7453 276.4 34.0119H295.2Z" fill="url(#paint4_linear_1747_13)"/>
<path d="M313.7 38.9119C313.7 34.7786 314.333 31.1453 315.6 28.0119C316.867 24.8786 318.533 22.2786 320.6 20.2119C322.667 18.0786 325.033 16.4786 327.7 15.4119C330.367 14.3453 333.1 13.8119 335.9 13.8119C342.833 13.8119 348.1 15.8786 351.7 20.0119C355.3 24.0786 357.1 30.0453 357.1 37.9119C357.1 38.7119 357.067 39.5453 357 40.4119C357 41.2786 356.967 41.9786 356.9 42.5119H326.4C326.4 45.5786 327.667 48.0119 330.2 49.8119C332.733 51.5453 336 52.4119 340 52.4119C342.467 52.4119 344.8 52.1453 347 51.6119C349.267 51.0786 351.167 50.5453 352.7 50.0119L354.4 60.5119C352.267 61.2453 350 61.8453 347.6 62.3119C345.2 62.8453 342.5 63.1119 339.5 63.1119C335.5 63.1119 331.9 62.6119 328.7 61.6119C325.567 60.5453 322.867 59.0119 320.6 57.0119C318.4 54.9453 316.7 52.4119 315.5 49.4119C314.3 46.4119 313.7 42.9119 313.7 38.9119ZM345.2 34.0119C345.2 32.7453 345.033 31.5453 344.7 30.4119C344.367 29.2119 343.833 28.1453 343.1 27.2119C342.367 26.2786 341.433 25.5453 340.3 25.0119C339.167 24.4119 337.767 24.1119 336.1 24.1119C334.5 24.1119 333.1 24.3786 331.9 24.9119C330.767 25.4453 329.8 26.1786 329 27.1119C328.267 28.0453 327.667 29.1119 327.2 30.3119C326.8 31.5119 326.533 32.7453 326.4 34.0119H345.2Z" fill="url(#paint5_linear_1747_13)"/>
<defs>
<linearGradient id="paint0_linear_1747_13" x1="9" y1="37.5" x2="357.1" y2="37.5" gradientUnits="userSpaceOnUse">
<stop stop-color="#9DDE8B"/>
<stop offset="1" stop-color="#40A578"/>
</linearGradient>
<linearGradient id="paint1_linear_1747_13" x1="9" y1="37.5" x2="357.1" y2="37.5" gradientUnits="userSpaceOnUse">
<stop stop-color="#9DDE8B"/>
<stop offset="1" stop-color="#40A578"/>
</linearGradient>
<linearGradient id="paint2_linear_1747_13" x1="9" y1="37.5" x2="357.1" y2="37.5" gradientUnits="userSpaceOnUse">
<stop stop-color="#9DDE8B"/>
<stop offset="1" stop-color="#40A578"/>
</linearGradient>
<linearGradient id="paint3_linear_1747_13" x1="9" y1="37.5" x2="357.1" y2="37.5" gradientUnits="userSpaceOnUse">
<stop stop-color="#9DDE8B"/>
<stop offset="1" stop-color="#40A578"/>
</linearGradient>
<linearGradient id="paint4_linear_1747_13" x1="9" y1="37.5" x2="357.1" y2="37.5" gradientUnits="userSpaceOnUse">
<stop stop-color="#9DDE8B"/>
<stop offset="1" stop-color="#40A578"/>
</linearGradient>
<linearGradient id="paint5_linear_1747_13" x1="9" y1="37.5" x2="357.1" y2="37.5" gradientUnits="userSpaceOnUse">
<stop stop-color="#9DDE8B"/>
<stop offset="1" stop-color="#40A578"/>
</linearGradient>
</defs>
</svg>
